<svg xmlns="http://www.w3.org/2000/svg" width="24" height="24" viewBox="0 -960 960 960">
  <path fill="white" d="m780-340-57-56 44-44H640v-80h126l-43-43 57-57 140 140z"/>
  <path fill="white" d="M80-760v-80h480v80z"/>
  <path fill="white" d="M260-260h120v-100h100v-120H380v-100H260v100H160v120h100z"/>
  <path fill="white" d="M120-120q-33 0-56.5-23.5T40-200v-440q0-33 23.5-56.5T120-720h400q33 0 56.5 23.5T600-640v440q0 33-23.5 56.5T520-120zm0-80h400v-440H120z"/>
  <path fill="white" d="M320-420"/>
</svg>