<svg xmlns="http://www.w3.org/2000/svg" width="24" height="24" viewBox="0 -960 960 960">
  <path d="M480-560q-66 0-113-47t-47-113 47-113 113-47 113 47 47 113-47 113-113 47m0-80q33 0 56.5-23.5T560-720t-23.5-56.5T480-800t-56.5 23.5T400-720t23.5 56.5T480-640M160-80v-271q0-34 17-62.5t47-44.5q51-26 115.5-44T480-520t140.5 18T736-458q30 16 47 44.5t17 62.5v191q0 33-23.5 56.5T720-80H390q-46 0-78-32t-32-78 32-78 78-32h113l62-132q-20-4-41-6t-44-2q-72 0-128 17.5T261-386q-10 5-15.5 14.5T240-351v271zm230-80h48l28-60h-76q-12 0-21 9t-9 21 9 21 21 9m136 0h194v-191q0-11-5.5-20.5T700-386q-12-6-26-12.5T644-411zm-46-134" fill="white"/>
</svg>
